<svg width="199.255" height="37.304" viewBox="0 0 52.72 9.87" xmlns="http://www.w3.org/2000/svg"><path d="M45.056 171.684v3.88h1.884c1.22 0 1.51-.696 1.51-1.94 0-1.312-.403-1.94-1.51-1.94zm-.867-.695c0-.08.045-.126.125-.126h2.626c1.53 0 2.378.936 2.378 2.761 0 1.86-.849 2.761-2.378 2.761h-1.884v2.34c0 .079-.046.125-.126.125h-.616c-.08 0-.125-.046-.125-.126zM50.606 176.18h3.57l-1.78-4.244zm5.602 2.556c.034.057-.023.114-.08.114h-.696c-.092 0-.148-.034-.171-.114l-.73-1.723h-4.28l-.73 1.723c-.022.08-.08.114-.17.114h-.696c-.058 0-.115-.057-.08-.114l3.297-7.76c.023-.079.08-.113.171-.113h.696c.092 0 .149.034.172.114zM56.834 170.989c0-.08.046-.126.126-.126h.616c.08 0 .125.045.125.126v7.04h3.019c.08 0 .125.045.125.125l-.158.57c0 .08-.124.126-.204.126H56.96c-.08 0-.126-.046-.126-.126zM63.362 176.18h3.57l-1.78-4.244zm5.602 2.556c.034.057-.023.114-.08.114h-.696c-.092 0-.149-.034-.171-.114l-.73-1.723h-4.28l-.73 1.723c-.022.08-.08.114-.17.114h-.696c-.058 0-.115-.057-.08-.114l3.297-7.76c.023-.079.08-.113.171-.113h.696c.092 0 .149.034.172.114zM72.171 178.028c1.906 0 2.539-1.152 2.539-3.172 0-2.065-.69-3.172-2.539-3.172h-1.714v6.344zm0-7.165c2.203 0 3.405 1.346 3.405 3.993 0 2.648-1.202 3.994-3.405 3.994h-2.455c-.08 0-.126-.046-.126-.126v-7.735c0-.08.046-.126.126-.126zM77.41 178.724c0 .08-.045.126-.125.126h-.616c-.08 0-.125-.046-.125-.126v-7.735c0-.08.045-.126.125-.126h.616c.08 0 .126.045.126.126zM78.684 170.989c0-.08.045-.126.126-.126h.616a.26.26 0 0 1 .205.103l4.906 6.458v-6.435c0-.08.045-.126.126-.126h.616c.08 0 .125.045.125.126v7.735c0 .08-.045.126-.125.126h-.616a.231.231 0 0 1-.206-.103l-4.906-6.47v6.447c0 .08-.046.126-.125.126h-.616c-.08 0-.126-.046-.126-.126zM39.437 172.977l-.677-.677a.04.04 0 0 0-.057 0l-.408.408H35.59l-.408-.408a.04.04 0 0 0-.057 0l-.677.677a.04.04 0 0 0 0 .057l.677.677a.04.04 0 0 0 .057 0l.409-.408h1.053v4.022l-.408.408a.04.04 0 0 0 0 .057l.677.678a.042.042 0 0 0 .029.011c.01 0 .02-.005.028-.011l.678-.678a.04.04 0 0 0 0-.057l-.409-.408v-4.022h1.054l.409.408a.04.04 0 0 0 .057 0l.677-.677a.04.04 0 0 0 .012-.029c0-.01-.004-.02-.012-.028z" style="clip-rule:evenodd;fill:#00afc3;fill-rule:nonzero;stroke-width:.01;image-rendering:optimizeQuality;shape-rendering:geometricPrecision;text-rendering:geometricPrecision" transform="translate(-32.685 -170.629)"/><path d="M40.342 175.394c0 .031-.002.062-.006.103v.026c-.003.062-.006.116-.006.172-.104 1.186-.94 2.164-1.623 2.776-.731.644-1.49 1.037-1.723 1.118l-.04.014-.041-.014c-.234-.08-.992-.474-1.724-1.117-.683-.612-1.519-1.589-1.622-2.763-.001-.07-.003-.127-.007-.192v-.006a1.535 1.535 0 0 1-.005-.118v-3.972h6.797zm-7.657-4.765v4.765c0 .055.002.105.006.161l.001.028c.003.043.005.085.005.156.129 1.49 1.11 2.658 1.911 3.374.881.777 1.832 1.25 2.121 1.32l.208.064.006.002.213-.065c.29-.07 1.24-.544 2.122-1.32.8-.717 1.782-1.885 1.91-3.376l.005-.155.002-.028c.003-.056.006-.106.006-.162v-4.764z" style="clip-rule:evenodd;fill:#00afc3;fill-rule:nonzero;stroke-width:.01;image-rendering:optimizeQuality;shape-rendering:geometricPrecision;text-rendering:geometricPrecision" transform="translate(-32.685 -170.629)"/></svg>
